{"title":"La Belle Verte (1996), french, german","uid":6231277,"size":1019604268,"categoryP":"video","categoryS":"movies","magnet":"?xt=urn:btih:73ea033c5d57fd037fc6246b41ff09624864d198&amp;dn=La+Belle+Verte+%281996%29%2C+french%2C+german&amp;tr=udp%3A%2F%2Ftracker.openbittorrent.com%3A80&amp;tr=udp%3A%2F%2Fopen.demonii.com%3A1337&amp;tr=udp%3A%2F%2Ftracker.coppersurfer.tk%3A6969&amp;tr=udp%3A%2F%2Fexodus.desync.com%3A6969","seeders":2,"leechers":0,"uploader":"teashades76","files":2,"time":1299717791,"description":"General\nComplete name                    : La.Belle.Verte.1996.mkv\nFormat                           : Matroska\nFile size                        : 972 MiB\nDuration                         : 1h 29mn\nOverall bit rate                 : 1 520 Kbps\nMovie name                       : La Belle Verte\n\nVideo\nID                               : 1\nFormat                           : MPEG-4 Visual\nFormat profile                   : Advanced Simple@L5\nFormat settings, BVOP            : Yes\nFormat settings, QPel            : No\nFormat settings, GMC             : No warppoints\nFormat settings, Matrix          : Default (H.263)\nCodec ID                         : V_MPEG4/ISO/ASP\nCodec ID/Info                    : Advanced Simple Profile\nDuration                         : 1h 29mn\nBit rate                         : 1 170 Kbps\nWidth                            : 720 pixels\nHeight                           : 304 pixels\nDisplay aspect ratio             : 2.35:1\nFrame rate                       : 29.970 fps\nColor space                      : YUV\nChroma subsampling               : 4:2:0\nBit depth                        : 8 bits\nScan type                        : Progressive\nCompression mode                 : Lossy\nBits/(Pixel*Frame)               : 0.178\nStream size                      : 748 MiB (77%)\nTitle                            : La Belle Verte (1996)\nWriting library                  : XviD 58\nLanguage                         : French\n\nAudio #1\nID                               : 2\nFormat                           : AC-3\nFormat/Info                      : Audio Coding 3\nMode extension                   : CM (complete main)\nMuxing mode                      : Header stripping\nCodec ID                         : A_AC3\nDuration                         : 1h 29mn\nBit rate mode                    : Constant\nBit rate                         : 160 Kbps\nChannel(s)                       : 2 channels\nChannel positions                : Front: L R\nSampling rate                    : 48.0 KHz\nBit depth                        : 16 bits\nCompression mode                 : Lossy\nDelay relative to video          : -33ms\nStream size                      : 102 MiB (11%)\nLanguage                         : French\n\nAudio #2\nID                               : 3\nFormat                           : AC-3\nFormat/Info                      : Audio Coding 3\nMode extension                   : CM (complete main)\nMuxing mode                      : Header stripping\nCodec ID                         : A_AC3\nDuration                         : 1h 29mn\nBit rate mode                    : Constant\nBit rate                         : 160 Kbps\nChannel(s)                       : 2 channels\nChannel positions                : Front: L R\nSampling rate                    : 44.1 KHz\nBit depth                        : 16 bits\nCompression mode                 : Lossy\nDelay relative to video          : 258ms\nStream size                      : 102 MiB (11%)\nLanguage                         : German\n\nText\nID                               : 4\nFormat                           : UTF-8\nCodec ID                         : S_TEXT/UTF8\nCodec ID/Info                    : UTF-8 Plain Text\nLanguage                         : English\n","torrent":{"xt":"urn:btih:73ea033c5d57fd037fc6246b41ff09624864d198","amp;dn":"La+Belle+Verte+%281996%29%2C+french%2C+german","amp;tr":["udp%3A%2F%2Ftracker.openbittorrent.com%3A80","udp%3A%2F%2Fopen.demonii.com%3A1337","udp%3A%2F%2Ftracker.coppersurfer.tk%3A6969","udp%3A%2F%2Fexodus.desync.com%3A6969"],"infoHash":"73ea033c5d57fd037fc6246b41ff09624864d198","infoHashBuffer":{"type":"Buffer","data":[115,234,3,60,93,87,253,3,127,198,36,107,65,255,9,98,72,100,209,152]},"announce":[],"urlList":[]}}